<svg width="24" height="24" viewBox="0 0 24 24" fill="none" xmlns="http://www.w3.org/2000/svg">
  <path
    d="M15.1568 23.15C15.7408 23.15 16.2142 22.6766 16.2142 22.0926V17.1947C16.2142 16.7253 16.5948 16.3447 17.0642 16.3447H21.9621C22.5461 16.3447 23.0195 15.8713 23.0195 15.2873C23.0195 14.7034 22.5461 14.2299 21.9621 14.2299H16.0642C14.9832 14.2299 14.0995 15.1137 14.0995 16.1947V22.0926C14.0995 22.6766 14.5729 23.15 15.1568 23.15Z"
    fill="#C9C9C9" stroke="#C9C9C9" stroke-width="0.3"/>
  <path
    d="M1.90739 10.7701H7.80528C8.88627 10.7701 9.77006 9.88627 9.77006 8.80528V2.90739C9.77006 2.32341 9.29665 1.85 8.71267 1.85C8.12869 1.85 7.65528 2.32341 7.65528 2.90739V7.80528C7.65528 8.27472 7.27472 8.65528 6.80528 8.65528H1.90739C1.32341 8.65528 0.85 9.12869 0.85 9.71267C0.85 10.2966 1.32341 10.7701 1.90739 10.7701Z"
    fill="#C9C9C9" stroke="#C9C9C9" stroke-width="0.3"/>
  <path
    d="M8.71261 23.15C9.29659 23.15 9.77 22.6766 9.77 22.0926V16.1947C9.77 15.1137 8.88621 14.2299 7.80521 14.2299H1.90733C1.32335 14.2299 0.849939 14.7034 0.849939 15.2873C0.849939 15.8713 1.32335 16.3447 1.90733 16.3447H6.80521C7.27466 16.3447 7.65521 16.7253 7.65521 17.1947V22.0926C7.65521 22.6766 8.12862 23.15 8.71261 23.15Z"
    fill="#C9C9C9" stroke="#C9C9C9" stroke-width="0.3"/>
  <path
    d="M21.9621 10.7701C22.5461 10.7701 23.0195 10.2966 23.0195 9.71267C23.0195 9.12869 22.5461 8.65528 21.9621 8.65528H17.0642C16.5948 8.65528 16.2142 8.27472 16.2142 7.80528V2.90739C16.2142 2.32341 15.7408 1.85 15.1568 1.85C14.5729 1.85 14.0995 2.32341 14.0995 2.90739V8.80528C14.0995 9.88627 14.9832 10.7701 16.0642 10.7701H21.9621Z"
    fill="#C9C9C9" stroke="#C9C9C9" stroke-width="0.3"/>
</svg>
