<svg width="24" height="24" viewBox="0 0 24 24" fill="none" xmlns="http://www.w3.org/2000/svg">
  <path
    d="M13.5419 11.5228C12.9461 11.5228 12.5733 12.1546 12.5733 13.3708C12.5733 14.5949 12.9426 15.2415 13.5419 15.2415C14.1448 15.2415 14.5114 14.5993 14.5114 13.3708C14.5114 12.1511 14.1422 11.5228 13.5419 11.5228ZM13.5419 10.6259C14.8282 10.6259 15.6235 11.6357 15.6235 13.3743C15.6235 15.1068 14.8387 16.1349 13.5419 16.1349C12.2461 16.1349 11.4612 15.1111 11.4612 13.3708C11.4612 11.6357 12.2531 10.6259 13.5419 10.6259ZM10.0735 16.0001V10.7598H8.98062L7.62614 11.6934V12.7137L8.91149 11.8282H8.97713V16.0001H10.0735ZM21.2497 13.3752C21.2497 18.6828 16.9325 23 11.6248 23C6.31805 23 2 18.6828 2 13.3752C2 8.06839 6.31805 3.75034 11.6248 3.75034H13.3748V2.43786C13.3748 2.27949 13.4614 2.13248 13.6005 2.05549C13.7379 1.97761 13.9094 1.98199 14.0442 2.06686L16.8747 3.83608V2.43786C16.8747 2.27949 16.9614 2.13248 17.1005 2.05549C17.2387 1.97761 17.4085 1.98199 17.5441 2.06686L21.0441 4.25432C21.1718 4.33395 21.2497 4.47395 21.2497 4.62533C21.2497 4.7767 21.1718 4.91668 21.0441 4.9963L17.5441 7.18376C17.4732 7.22839 17.3927 7.25028 17.3122 7.25028C17.2396 7.25028 17.1661 7.23277 17.1005 7.19602C16.9614 7.11902 16.8747 6.97203 16.8747 6.81279V5.41454L14.0442 7.18376C13.9733 7.22839 13.8928 7.25028 13.8123 7.25028C13.7397 7.25028 13.6662 7.23277 13.6005 7.19602C13.4614 7.11902 13.3748 6.97203 13.3748 6.81279V5.50031H11.6248C7.28316 5.50031 3.74997 9.03262 3.74997 13.3752C3.74997 17.7177 7.28316 21.25 11.6248 21.25C15.9665 21.25 19.4997 17.7177 19.4997 13.3752C19.4997 12.8913 19.8917 12.5002 20.3747 12.5002C20.8577 12.5002 21.2497 12.8913 21.2497 13.3752Z"
    fill="#C9C9C9"/>
</svg>
