<svg width="24" height="24" viewBox="0 0 24 24" fill="none" xmlns="http://www.w3.org/2000/svg">
  <path
    d="M16.238 16.1C13.979 16.1 12.578 14.538 12.578 11.997C12.578 9.462 13.973 7.9 16.238 7.9C18.087 7.9 19.5029 9.127 19.6219 10.824H18.032C17.876 9.927 17.168 9.338 16.238 9.338C15.011 9.338 14.249 10.354 14.249 11.997C14.249 13.641 15.011 14.662 16.243 14.662C17.178 14.662 17.881 14.111 18.038 13.251H19.627C19.492 14.938 18.119 16.1 16.238 16.1ZM8.03198 16.1C5.77298 16.1 4.37299 14.538 4.37299 11.997C4.37299 9.462 5.76798 7.9 8.03198 7.9C9.88098 7.9 11.298 9.127 11.416 10.824H9.82697C9.67097 9.927 8.96198 9.338 8.03198 9.338C6.80598 9.338 6.04297 10.354 6.04297 11.997C6.04297 13.641 6.80596 14.662 8.03796 14.662C8.97296 14.662 9.67601 14.111 9.83301 13.251H11.422C11.287 14.938 9.91398 16.1 8.03198 16.1ZM22.5 3H1.5C0.672 3 0 3.671 0 4.5V19.5C0 20.329 0.672 21 1.5 21H22.5C23.329 21 24 20.329 24 19.5V4.5C24 3.671 23.329 3 22.5 3Z"
    fill="#C9C9C9"/>
</svg>
