<svg width="24" height="24" viewBox="0 0 24 24" fill="none" xmlns="http://www.w3.org/2000/svg">
  <path
    d="M5.50025 8.00025C4.67125 8.00025 4.00025 8.67225 4.00025 9.50025V14.5003C4.00025 15.3283 4.67125 16.0003 5.50025 16.0003H7.24824C7.65024 16.0003 8.03627 16.1613 8.31727 16.4483L12.5443 20.7413C12.7083 20.9073 12.9262 20.9963 13.1492 20.9963C13.2572 20.9963 13.3672 20.9763 13.4722 20.9333C13.7932 20.8013 14.0003 20.4923 14.0003 20.1462V16.3283C14.0003 16.1963 13.9473 16.0683 13.8543 15.9753L6.02528 8.14625C5.93228 8.05325 5.80425 8.00025 5.67225 8.00025H5.50025ZM14.0003 3.85426C14.0003 3.50826 13.7932 3.19927 13.4722 3.06727C13.1502 2.93627 12.7873 3.01226 12.5443 3.25926L9.33827 6.51527C9.14627 6.71127 9.14626 7.02625 9.34126 7.22025L13.5733 11.4522C13.7313 11.6102 14.0003 11.4982 14.0003 11.2752V3.85426ZM20.8543 20.8543C20.7563 20.9513 20.6283 21.0003 20.5003 21.0003C20.3723 21.0003 20.2442 20.9513 20.1462 20.8543L3.14625 3.85426C2.95125 3.65826 2.95125 3.34225 3.14625 3.14625C3.34225 2.95125 3.65826 2.95125 3.85426 3.14625L20.8543 20.1462C21.0493 20.3422 21.0493 20.6583 20.8543 20.8543Z"
    fill="#C9C9C9"/>
</svg>
