<svg width="24" height="24" viewBox="0 0 24 24" fill="none" xmlns="http://www.w3.org/2000/svg">
  <path
    d="M17.1999 4.85023H21.1498V8.80019C21.1498 9.0786 21.2604 9.34577 21.4574 9.54268C21.6283 9.71365 21.8523 9.81956 22.0906 9.84449L22.0965 9.85041H22.2001C22.4785 9.85041 22.7456 9.73981 22.9426 9.5429C23.1395 9.346 23.2501 9.07883 23.2501 8.80042V3.80024C23.2501 3.52182 23.1395 3.25465 22.9426 3.05775L22.7658 3.23453L22.9426 3.05775C22.7456 2.86085 22.4785 2.75024 22.2001 2.75024H17.1999C16.8247 2.75024 16.478 2.95039 16.2905 3.27526C16.103 3.6001 16.103 4.00037 16.2905 4.32521C16.478 4.65009 16.8247 4.85023 17.1999 4.85023Z"
    fill="#C9C9C9" stroke="#C9C9C9" stroke-width="0.5"/>
  <path
    d="M1.79999 9.85017H1.90368L1.90961 9.84423C2.14785 9.81928 2.37176 9.71338 2.54271 9.54243C2.73961 9.34553 2.85021 9.07836 2.85021 8.79995V4.84999H6.80017C7.17536 4.84999 7.52201 4.64984 7.70953 4.32497C7.89703 4.00013 7.89703 3.59986 7.70953 3.27502C7.52201 2.95014 7.17537 2.75 6.80017 2.75H1.79999C1.52158 2.75 1.25441 2.8606 1.05751 3.05751C0.860605 3.25441 0.75 3.52158 0.75 3.79999V8.80017C0.75 9.07859 0.860605 9.34576 1.05751 9.54266C1.25441 9.73956 1.52158 9.85017 1.79999 9.85017Z"
    fill="#C9C9C9" stroke="#C9C9C9" stroke-width="0.5"/>
  <path
    d="M21.1496 18.7498H17.1996C16.8245 18.7498 16.4778 18.95 16.2903 19.2748C16.1028 19.5997 16.1028 19.9999 16.2903 20.3248C16.4778 20.6497 16.8244 20.8498 17.1996 20.8498H21.5963L21.596 20.85H22.1996C22.478 20.85 22.7452 20.7394 22.9421 20.5425C23.139 20.3456 23.2496 20.0785 23.2496 19.8V14.7999C23.2496 14.4247 23.0494 14.078 22.7246 13.8905C22.3997 13.703 21.9995 13.703 21.6746 13.8905C21.3497 14.078 21.1496 14.4247 21.1496 14.7999V18.7498Z"
    fill="#C9C9C9" stroke="#C9C9C9" stroke-width="0.5"/>
  <path
    d="M2.85003 18.7498H6.79999C7.17518 18.7498 7.52183 18.95 7.70935 19.2748C7.89685 19.5997 7.89685 19.9999 7.70935 20.3248C7.52183 20.6497 7.17519 20.8498 6.79999 20.8498H2.40337L2.40359 20.85H1.80004C1.52163 20.85 1.25446 20.7394 1.05756 20.5425C0.860653 20.3456 0.750049 20.0785 0.750049 19.8V14.7999C0.750049 14.4247 0.950194 14.078 1.27507 13.8905C1.5999 13.703 2.00018 13.703 2.32501 13.8905C2.64989 14.078 2.85003 14.4247 2.85003 14.7999V18.7498Z"
    fill="#C9C9C9" stroke="#C9C9C9" stroke-width="0.5"/>
</svg>
