<svg width="24" height="24" viewBox="0 0 24 24" fill="none" xmlns="http://www.w3.org/2000/svg">
  <path
    d="M11.6248 3.75034H9.87486V2.43786C9.87486 2.27862 9.78824 2.13161 9.64912 2.05549C9.51087 1.97761 9.34025 1.98199 9.2055 2.06686L6.37492 3.83606V2.43786C6.37492 2.27862 6.2883 2.13161 6.14918 2.05549C6.01093 1.97761 5.84118 1.98199 5.70556 2.06686L2.20562 4.25432C2.07787 4.33395 2 4.47395 2 4.62533C2 4.7767 2.07787 4.9167 2.20562 4.99633L5.70556 7.18379C5.77643 7.22841 5.85693 7.25028 5.93743 7.25028C6.01005 7.25028 6.08356 7.23189 6.14918 7.19602C6.2883 7.11902 6.37492 6.97203 6.37492 6.81279V5.41454L9.2055 7.18379C9.27637 7.22841 9.35687 7.25028 9.43737 7.25028C9.50999 7.25028 9.58349 7.23189 9.64912 7.19602C9.78824 7.11902 9.87486 6.97203 9.87486 6.81279V5.50031H11.6248C15.9665 5.50031 19.4997 9.03262 19.4997 13.3752C19.4997 17.7177 15.9665 21.25 11.6248 21.25C7.28316 21.25 3.74997 17.7177 3.74997 13.3752C3.74997 12.8913 3.35798 12.5002 2.87498 12.5002C2.39199 12.5002 2 12.8913 2 13.3752C2 18.682 6.31805 23 11.6248 23C16.9316 23 21.2497 18.682 21.2497 13.3752C21.2497 8.06839 16.9316 3.75034 11.6248 3.75034ZM12.5637 13.3708C12.5637 14.5949 12.9338 15.2415 13.5332 15.2415C14.136 15.2415 14.5027 14.5984 14.5027 13.3708C14.5027 12.1511 14.1325 11.5228 13.5332 11.5228C12.9373 11.5228 12.5637 12.1537 12.5637 13.3708ZM11.4525 13.3708C11.4525 11.6357 12.2443 10.6251 13.5332 10.6251C14.8185 10.6251 15.6148 11.6357 15.6148 13.3743C15.6148 15.1067 14.8299 16.134 13.5332 16.134C12.2364 16.134 11.4525 15.1103 11.4525 13.3708ZM8.96838 16.0001V11.8273H8.90276L7.6174 12.7136V11.6935L8.97188 10.7598H10.0647V16.0001H8.96838Z"
    fill="#C9C9C9"/>
</svg>
