<svg width="24" height="24" viewBox="0 0 24 24" fill="none" xmlns="http://www.w3.org/2000/svg">
  <path
    d="M14.187 7.71405C13.759 8.06405 13.697 8.69307 14.046 9.12107C14.662 9.87207 15 10.8941 15 11.9961C15 13.0991 14.662 14.1201 14.046 14.8711C13.697 15.2991 13.759 15.9291 14.187 16.2781C14.373 16.4311 14.597 16.5051 14.82 16.5051C15.109 16.5051 15.396 16.3801 15.594 16.1391C16.501 15.0301 17 13.5601 17 11.9961C17 10.4331 16.501 8.96207 15.594 7.85407C15.245 7.42707 14.614 7.36405 14.187 7.71405ZM19.772 5.14408C19.443 4.70008 18.816 4.60907 18.374 4.94007C17.931 5.27007 17.839 5.89605 18.169 6.33905C19.367 7.94705 20 9.90307 20 11.9961C20 14.0891 19.367 16.0451 18.169 17.6531C17.839 18.0971 17.931 18.7231 18.374 19.0531C18.553 19.1871 18.762 19.2511 18.97 19.2511C19.275 19.2511 19.576 19.1121 19.772 18.8491C21.23 16.8921 22 14.5231 22 11.9961C22 9.47007 21.23 7.10108 19.772 5.14408ZM12 3.85108V20.1421C12 20.4881 11.793 20.7971 11.473 20.9291C11.368 20.9721 11.258 20.9921 11.149 20.9921C10.926 20.9921 10.708 20.9031 10.544 20.7371L6.317 16.4431C6.038 16.1591 5.648 15.9961 5.249 15.9961H3.5C2.673 15.9961 2 15.3231 2 14.4961V9.49607C2 8.66907 2.673 7.99607 3.5 7.99607H5.249C5.648 7.99607 6.038 7.83308 6.317 7.54908L10.544 3.25507C10.787 3.00807 11.151 2.93206 11.473 3.06406C11.793 3.19506 12 3.50408 12 3.85108Z"
    fill="#C9C9C9"/>
</svg>
