<?xml version="1.0" encoding="UTF-8"?>
<svg width="24px" height="24px" class="mute-on-ad-icon" viewBox="0 0 24 24" version="1.1"
     xmlns="http://www.w3.org/2000/svg" xmlns:xlink="http://www.w3.org/1999/xlink">
  <!-- Generator: Sketch 49 (51002) - http://www.bohemiancoding.com/sketch -->
  <desc>Created with Sketch.</desc>
  <defs></defs>
  <g id="sound-on" stroke="none" stroke-width="1" fill="none" fill-rule="evenodd">
    <g>
      <rect id="bounding-box" x="0" y="0" width="24" height="24"></rect>
      <path
        d="M15.5,3.46794895 C19.6672258,4.27664367 22.5,7.70126202 22.5,12 C22.5,16.2744271 19.7580645,19.5853563 15.5,20.531336 L15.5,22 C20.3087742,21.2906939 24,17.1074327 24,12 C24,6.8925673 20.3087742,2.70859104 15.5,2 L15.5,3.46794895 Z M15.5,7.0666762 C17.9043871,7.41632405 19.738045,9.48060491 19.738045,11.9996425 C19.738045,14.5186801 17.9043871,16.5829609 15.5,16.9326088 L15.5,15.5025562 C17.1194839,15.1714991 18.3186901,13.7292911 18.3186901,11.9996425 C18.3186901,10.2699939 17.1194839,8.82778592 15.5,8.49672875 L15.5,7.0666762 Z M6.5,6 L11.5,3 C12.3284271,3 13,3.67157288 13,4.5 L13,19.5 C13,20.3284271 12.3284271,21 11.5,21 L6.5,18 L6.5,6 Z M2.5,7 L5,7 L5,17 L2.5,17 C1.67157288,17 1,16.3284271 1,15.5 L1,8.5 C1,7.67157288 1.67157288,7 2.5,7 Z"
        fill="#FFFFFE"></path>
    </g>
  </g>
</svg>
