<?xml version="1.0" encoding="UTF-8"?>
<svg width="24px" height="24px" viewBox="0 0 24 24" version="1.1" xmlns="http://www.w3.org/2000/svg" xmlns:xlink="http://www.w3.org/1999/xlink">
    <!-- Generator: Sketch 49 (51002) - http://www.bohemiancoding.com/sketch -->
    <desc>Created with Sketch.</desc>
    <defs></defs>
    <g id="fullscreen" stroke="none" stroke-width="1" fill="none" fill-rule="evenodd">
        <g>
            <rect id="bounding-box" x="0" y="0" width="24" height="24"></rect>
            <path d="M20,22 C21.105,22 22,21.3 22,20.196 L22,15.196 C22,14.643 21.552,14.196 21,14.196 L21,14.196 C20.448,14.196 20,14.643 20,15.196 L20,17.574 C20,18.02 19.461,18.243 19.146,17.928 L16.121,14.903 C15.731,14.512 15.098,14.512 14.707,14.903 L14.707,14.903 C14.317,15.293 14.317,15.926 14.707,16.317 L17.732,19.244 C18.047,19.559 17.824,20 17.379,20 L15,20 C14.448,20 14,20.546 14,21.098 L14,21.049 C14,21.601 14.448,22 15,22 L20,22 Z M2,9.196 C2,9.748 2.448,10.196 3,10.196 L3,10.196 C3.552,10.196 4,9.748 4,9.196 L4,6.817 C4,6.371 4.539,6.148 4.854,6.463 L7.879,9.489 C8.269,9.879 8.902,9.879 9.293,9.489 L9.293,9.489 C9.683,9.098 9.683,8.465 9.293,8.074 L6.268,4.951 C5.953,4.636 6.176,4 6.621,4 L9,4 C9.552,4 10,3.65 10,3.098 L10,3.049 C10,2.497 9.552,2 9,2 L4,2 C2.895,2 2,3.091 2,4.196 L2,9.196 Z M22,4 C22,2.895 21.3,2 20.196,2 L15.196,2 C14.643,2 14.196,2.448 14.196,3 C14.196,3.552 14.643,4 15.196,4 L17.574,4 C18.02,4 18.243,4.539 17.928,4.854 L14.903,7.879 C14.512,8.269 14.512,8.902 14.903,9.293 L14.903,9.293 C15.293,9.683 15.926,9.683 16.317,9.293 L19.244,6.268 C19.559,5.953 20,6.176 20,6.621 L20,9 C20,9.552 20.546,10 21.098,10 L21.049,10 C21.601,10 22,9.552 22,9 L22,4 Z M4.196,22 C3.091,22 2,21.105 2,20 L2,15 C2,14.448 2.497,14 3.049,14 L3.098,14 C3.65,14 4,14.448 4,15 L4,17.379 C4,17.824 4.636,18.047 4.951,17.732 L8.074,14.707 C8.465,14.317 9.098,14.317 9.488,14.707 L9.488,14.707 C9.879,15.098 9.879,15.731 9.488,16.121 L6.463,19.146 C6.148,19.461 6.371,20 6.817,20 L9.196,20 C9.748,20 10.196,20.448 10.196,21 C10.196,21.552 9.748,22 9.196,22 L4.196,22 Z" fill="#FFFFFF"></path>
        </g>
    </g>
</svg>