<svg xmlns="http://www.w3.org/2000/svg" width="24" height="20" viewBox="0 0 24 20">
    <path fill="#FFF" fill-rule="nonzero" d="M24 1.5v13a1.5 1.5 0 0 1-1.5 1.5h-1a.5.5 0 0 1-.5-.5v-10A2.5 2.5 0 0 0 18.5 3h-14a.5.5 0 0 1-.5-.5v-1A1.5 1.5 0 0 1 5.5 0h17A1.5 1.5 0 0 1 24 1.5M12.724 12.447l-5 2.5a.505.505 0 0 1-.487-.021A.503.503 0 0 1 7 14.5v-5c0-.173.09-.334.237-.426a.505.505 0 0 1 .487-.021l5 2.5a.5.5 0 0 1 0 .894M18.5 4h-17C.673 4 0 4.673 0 5.5v13c0 .827.673 1.5 1.5 1.5h17c.827 0 1.5-.673 1.5-1.5v-13c0-.827-.673-1.5-1.5-1.5"/>
</svg>
