<svg width="20" height="20" viewBox="0 0 24 24" fill="none" xmlns="http://www.w3.org/2000/svg">
  <path
    d="M14.9562 8.22232H13.9961V15.1873H14.9562C15.8914 15.1873 16.766 14.8253 17.4195 14.1676C18.0786 13.5037 18.4415 12.6281 18.4415 11.7026C18.4415 9.7837 16.8781 8.22253 14.9561 8.22253L14.9562 8.22232Z"
    fill="#C9C9C9"/>
  <path
    d="M22.0801 4H1.91994C0.859222 4 0 4.86406 0 5.91994V17.4878C0 18.5437 0.859222 19.4078 1.91994 19.4078H22.0801C23.1408 19.4078 24 18.5437 24 17.4878V5.91994C24 4.86406 23.1408 4 22.0801 4ZM10.3975 15.3473C10.3975 15.6124 10.1827 15.8272 9.91754 15.8272C9.65216 15.8272 9.43761 15.6122 9.43761 15.3473V12.0239H5.55956V15.3473C5.55956 15.6124 5.34481 15.8272 5.07963 15.8272C4.81425 15.8272 4.5997 15.6122 4.5997 15.3473L4.59949 7.74042C4.59949 7.47524 4.81425 7.26049 5.07943 7.26049C5.34481 7.26049 5.55936 7.47544 5.55936 7.74042V11.0636H9.43741V7.74042C9.43741 7.47524 9.65216 7.26049 9.91734 7.26049C10.1827 7.26049 10.3973 7.47544 10.3973 7.74042L10.3975 15.3473ZM18.1005 14.8438C17.2652 15.6844 16.1486 16.1472 14.9561 16.1472H13.5161C13.2507 16.1472 13.0361 15.9323 13.0361 15.6673V7.74263C13.0361 7.47745 13.2509 7.26269 13.5161 7.26269H14.9561C17.4072 7.26269 19.4013 9.25438 19.4013 11.7027C19.4013 12.8835 18.9392 13.9991 18.1005 14.844V14.8438Z"
    fill="#C9C9C9"/>
</svg>
