<svg width="20" height="20" viewBox="0 0 24 24" fill="none" xmlns="http://www.w3.org/2000/svg">
  <path
    d="M11.9854 23.9999C11.4272 23.9999 10.9571 23.5293 10.9571 22.9704C10.9571 22.4115 11.4272 21.9409 11.9854 21.9409C17.4492 21.9409 21.9143 17.4704 21.9143 11.9999C21.9143 6.52948 17.4492 2.05899 11.9854 2.05899C11.4272 2.05899 10.9571 1.58836 10.9571 1.02949C10.9571 0.470625 11.4272 0 11.9854 0C18.5949 0 24 5.38224 24 12.0291C24 18.6766 18.5949 24 11.9854 24V23.9999ZM10.2227 17.853L17.4785 13.4413C18.0072 13.1178 18.301 12.5885 18.301 11.9707C18.301 11.353 17.9779 10.8237 17.4785 10.5002L10.2227 6.08852C9.69405 5.76499 9.01826 5.76499 8.4896 6.05919C7.96094 6.35338 7.60828 6.94157 7.60828 7.5591V16.3824C7.60828 17.0002 7.93142 17.5883 8.4896 17.8824C8.75393 18.0294 9.04779 18.1177 9.34139 18.1177C9.63523 18.1177 9.95838 18.0294 10.2227 17.853V17.853ZM15.9216 11.9707L9.66457 15.7647V8.17661L15.9216 11.9707ZM8.22516 22.3529C8.4602 21.8236 8.25447 21.2058 7.7258 20.9705C7.19714 20.7353 6.69755 20.4413 6.2277 20.0882C5.75764 19.7646 5.11137 19.8822 4.78824 20.3235C4.46509 20.7941 4.58251 21.4412 5.02327 21.7647C5.58146 22.1764 6.19819 22.5293 6.81519 22.8235C6.96211 22.8824 7.10903 22.9117 7.25574 22.9117C7.66699 22.941 8.04893 22.7057 8.22513 22.3528L8.22516 22.3529ZM3.58381 19.0882C4.05387 18.7647 4.17127 18.1177 3.84814 17.647C3.52502 17.1764 3.23115 16.6765 2.99635 16.1471C2.76132 15.6178 2.14456 15.4118 1.6157 15.6472C1.08704 15.8825 0.881306 16.5 1.11634 17.0295C1.41018 17.6472 1.7626 18.2648 2.14459 18.8236C2.35032 19.1178 2.67325 19.2646 2.99638 19.2646C3.20191 19.2942 3.40763 19.2353 3.58384 19.0882L3.58381 19.0882ZM1.14563 13.9707C1.70382 13.9118 2.14435 13.4118 2.08576 12.853C2.05645 12.5588 2.05645 12.2648 2.05645 11.9706C2.05645 11.6764 2.05645 11.4117 2.08576 11.1178C2.14456 10.5589 1.70381 10.059 1.14563 10.0001C0.587439 9.94122 0.0881057 10.3825 0.0293019 10.9414C1.96979e-07 11.2942 0 11.6178 0 11.9709C0 12.3237 0.0293018 12.6768 0.0588091 13.0297C0.117618 13.5589 0.558169 13.9709 1.08706 13.9709C1.08686 13.9707 1.11636 13.9707 1.14567 13.9707L1.14563 13.9707ZM2.96687 7.79432C3.2019 7.26502 3.49553 6.76482 3.81866 6.2944C4.1418 5.82377 4.02439 5.17672 3.55432 4.8532C3.08427 4.52967 2.438 4.64722 2.11486 5.11786C1.73292 5.67672 1.38047 6.2942 1.08661 6.91193C0.851579 7.44123 1.08661 8.05897 1.58597 8.29426C1.73289 8.35314 1.87981 8.38247 2.02652 8.38247C2.40888 8.41181 2.7906 8.1767 2.96686 7.7943L2.96687 7.79432ZM6.22757 3.85328C6.69762 3.52974 7.19696 3.23554 7.69635 2.97089C8.22501 2.73558 8.43074 2.11807 8.19571 1.58857C7.96068 1.05927 7.34392 0.85329 6.81505 1.08861C6.19806 1.3828 5.58128 1.73565 5.02314 2.14741C4.55308 2.47094 4.43568 3.11797 4.78811 3.5886C4.99384 3.8828 5.31676 4.02969 5.6399 4.02969C5.84583 4.05902 6.05135 4.00014 6.22757 3.85325V3.85328Z"
    fill="#C9C9C9"/>
</svg>
