<svg width="24" height="24" viewBox="0 0 24 24" fill="none" xmlns="http://www.w3.org/2000/svg">
  <path
    d="M17.594 7.85407C17.245 7.42707 16.614 7.36505 16.187 7.71405C15.759 8.06405 15.697 8.69407 16.046 9.12207C16.661 9.87307 17 10.8941 17 11.9971C17 13.0991 16.661 14.1211 16.046 14.8721C15.697 15.2991 15.759 15.9291 16.187 16.2791C16.372 16.4311 16.596 16.5051 16.82 16.5051C17.109 16.5051 17.396 16.3801 17.594 16.1391C18.501 15.0311 19 13.5601 19 11.9971C19 10.4331 18.501 8.96207 17.594 7.85407ZM14 3.85108V20.1421C14 20.4891 13.793 20.7971 13.472 20.9291C13.367 20.9721 13.258 20.9931 13.149 20.9931C12.926 20.9931 12.708 20.9041 12.544 20.7381L8.317 16.4441C8.037 16.1601 7.648 15.9971 7.248 15.9971H5.5C4.673 15.9971 4 15.3241 4 14.4971V9.49707C4 8.66907 4.673 7.99707 5.5 7.99707H7.248C7.648 7.99707 8.037 7.83308 8.317 7.54908L12.544 3.25507C12.787 3.00807 13.151 2.93206 13.472 3.06406C13.793 3.19606 14 3.50408 14 3.85108Z"
    fill="#C9C9C9"/>
</svg>
