<svg id="Слой_1" data-name="Слой 1" xmlns="http://www.w3.org/2000/svg" viewBox="0 0 230.73 173.61"><defs><style>.cls-1{fill:#fff;}</style></defs><path class="cls-1" d="M71.82,16.09c11.43,0,22.87-.05,34.31,0,12,.06,19.45,7.45,19.7,19.52.23,11.31.23,11.31,11.81,11.31q24.36,0,48.73,0c12.74,0,20.21,7.3,20.27,19.88q.11,24.12,0,48.23c-.06,12.66-7.12,19.65-19.75,19.77-2,0-4,0-6,0-7.78,0-7.84.05-6,7.79a59.23,59.23,0,0,0,1.95,6.67c1.44,3.95.33,7.18-2.66,9.82-3.28,2.89-6.93,2.88-10.59.76-9.31-5.4-16.95-12.73-23.55-21.11-2.29-2.93-4.66-4.2-8.35-4-5.12.28-10.28.19-15.41,0-10.39-.37-17.64-7.65-18.09-18a62.93,62.93,0,0,0-.09-6.45c-.3-2.07,1.6-5.54-1.49-6-3.62-.48-7.92-2.08-11.07,1.89-6.09,7.7-12.82,14.76-21,20.24a42,42,0,0,1-5.09,3.08,8.16,8.16,0,0,1-9.29-1.12,8.25,8.25,0,0,1-3-8.86c1-4,2-8,3-12,.59-2.51-.34-3.66-3.07-3.59-4.14.12-8.3.14-12.43-.11-9.61-.59-16.86-7.76-17-17.42-.24-17.57-.21-35.14,0-52.71.12-10.07,8-17.46,18.43-17.58C48,16,59.88,16.09,71.82,16.09ZM56.66,120.5c2.53-.3,3.87-1.89,5.38-3.08A99.31,99.31,0,0,0,79.83,98.8a8.72,8.72,0,0,1,8-3.83c6.12.18,12.25.12,18.38,0,7.31-.12,10.6-3.39,10.64-10.72q.11-24.33,0-48.68c0-7-3.5-10.51-10.36-10.53q-35-.11-70,0c-6.34,0-9.92,3.51-9.95,9.83q-.15,25.08,0,50.18c0,6.37,3.42,9.72,9.86,9.89,5.62.14,11.26.1,16.89.06,4.37,0,6.2,2,6.25,6.4C59.55,107.88,58.17,114.1,56.66,120.5ZM167.78,152c-1.93-6.72-3.37-12.44-3.41-18.4,0-6.33,1.17-7.71,7.37-7.77,5-.05,9.94.06,14.9,0,7.6-.13,10.79-3.35,10.81-11q.08-23.85,0-47.69c0-7.61-3.38-11-10.86-11.08-18.88-.07-37.76,0-56.64-.08-3.21,0-4.29.89-4.2,4.21.24,8.27.18,16.56,0,24.83-.13,8.6-4.46,16.11-11.88,17.55-6.73,1.3-7.44,4.81-6.78,10.16.14,1.14,0,2.32,0,3.48.3,6.1,3.53,9.44,9.69,9.63,5.79.18,11.6.34,17.38,0,4.81-.31,7.94,1.3,10.83,5.22A79.08,79.08,0,0,0,167.78,152Z"/><path class="cls-1" d="M73.07,56c-6.4,0-12.15-.06-17.9,0-3.28,0-5.76-1-5.68-4.63s2.66-4.59,5.88-4.45c1.49.06,3-.12,4.47,0,4.79.46,8.51.12,7.44-6.47-.43-2.67,1.82-4.32,4.42-4.26s4.81,1.75,4.35,4.4c-1.18,6.75,2.76,6.72,7.44,6.34a43.43,43.43,0,0,1,6.45.09,4,4,0,0,1,4,4.17c0,2.59-1.46,4.88-4.17,4.48-7-1-7.55,5.72-11.08,8.81-1.54,1.35.36,2.28,1.27,3.06,2.13,1.83,4.38,3.53,6.52,5.36s2.74,4.28.8,6.54c-1.74,2-4,2-6.27.53-.28-.18-.52-.41-.79-.6-3.22-2.29-5.94-6.88-9.46-6.66s-6.61,4-9.91,6.17a19.94,19.94,0,0,1-2.55,1.52c-2.51,1.19-5,1.29-6.46-1.44-1.42-2.57-.6-4.82,1.91-6.34A88.31,88.31,0,0,0,68.17,62.07C69.84,60.52,71.73,59.09,73.07,56Z"/><path class="cls-1" d="M153,104.27a43.76,43.76,0,0,1-4.91,0c-3.27-.4-5.24.75-6.27,4-.9,2.88-2.84,5.23-6.28,3.82-3.66-1.5-3.21-4.49-1.94-7.52,4.68-11.12,9.36-22.22,13.94-33.37,1-2.36,2.28-4.1,5-4.08s3.89,2,4.85,4.25c4.66,11.11,9.4,22.2,14.14,33.28,1.3,3,1.69,6-2,7.46-3.4,1.35-5.49-.73-6.29-3.74C161.49,102,156.3,105.12,153,104.27Zm-.84-20.39a64.73,64.73,0,0,1-2.78,6.37c-2.25,3.89-1.16,4.85,3.14,4.89s4.82-1.35,2.93-4.73C154.36,88.42,154.15,86,152.18,83.88Z"/></svg>