<?xml version="1.0" encoding="UTF-8"?>
<svg width="24px" height="24px" viewBox="0 0 24 24" version="1.1" xmlns="http://www.w3.org/2000/svg" xmlns:xlink="http://www.w3.org/1999/xlink">
    <!-- Generator: Sketch 49 (51002) - http://www.bohemiancoding.com/sketch -->
    <title>share</title>
    <desc>Created with Sketch.</desc>
    <defs></defs>
    <g id="share" stroke="none" stroke-width="1" fill="none" fill-rule="evenodd">
        <g>
            <rect id="bounding-box" x="0" y="0" width="24" height="24"></rect>
            <path d="M15.2144393,2.20876082 C14.9358078,1.93041306 14.484087,1.93041306 14.2054555,2.20876082 C14.0450314,2.37291462 13.9880385,2.58702828 14.0119615,2.80114194 L14.0119615,7.01204389 C8.17688322,7.01204389 3,11.9502186 3,17.8668927 C3,19.3870997 3.31521947,20.8287983 3.87670414,22.1420287 C4.71048778,17.6741904 9.35614177,14.1420287 14,14.1420287 L14,18.4243019 C13.9753735,18.6312784 14.045735,18.7740209 14.2054555,18.9310376 C14.5129353,19.2450709 14.992097,19.1166027 15.2531381,18.8882148 L21.7970716,11.2579177 C21.9455344,11.1080382 22.0088597,10.9081988 21.9990091,10.7154965 C22.0088597,10.5156571 21.9455344,10.3229548 21.7970716,10.1730752 L15.2144393,2.20876082 Z" fill="#FFFFFE"></path>
        </g>
    </g>
</svg>