<?xml version="1.0" encoding="UTF-8"?>
<svg width="24px" height="24px" viewBox="0 0 24 24" version="1.1" xmlns="http://www.w3.org/2000/svg" xmlns:xlink="http://www.w3.org/1999/xlink">
    <!-- Generator: Sketch 49 (51002) - http://www.bohemiancoding.com/sketch -->
    <title>close-share</title>
    <desc>Created with Sketch.</desc>
    <defs></defs>
    <g id="close-share" stroke="none" stroke-width="1" fill="none" fill-rule="evenodd">
        <g>
            <rect id="bounding-box" x="0" y="0" width="24" height="24"></rect>
            <path d="M17.63775,16.2525 C18.02875,16.6425 18.02875,17.2825 17.63775,17.6725 C17.24775,18.0625 16.61375,18.0625 16.22275,17.6725 L11.98675,13.4325 L7.72075,17.7025 C7.32675,18.0925 6.68875,18.0925 6.29475,17.7025 C5.90175,17.3025 5.90175,16.6625 6.29475,16.2725 L10.56075,12.0025 L6.32475,7.7725 C5.93375,7.3825 5.93375,6.7425 6.32475,6.3525 C6.71375,5.9625 7.34775,5.9625 7.73875,6.3525 L11.97475,10.5925 L16.27275,6.2925 C16.66675,5.9025 17.30375,5.9025 17.69775,6.2925 C18.09075,6.6925 18.09075,7.3225 17.69775,7.7225 L13.40075,12.0225 L17.63775,16.2525 L17.63775,16.2525 Z" fill="#B1B1B1"></path>
        </g>
    </g>
</svg>