<?xml version="1.0" encoding="UTF-8"?>
<svg width="24px" height="24px" viewBox="0 0 24 24" class="mute-off-ad-icon" version="1.1"
     xmlns="http://www.w3.org/2000/svg" xmlns:xlink="http://www.w3.org/1999/xlink">
  <!-- Generator: Sketch 49 (51002) - http://www.bohemiancoding.com/sketch -->
  <desc>Created with Sketch.</desc>
  <defs></defs>
  <g id="sound-off" stroke="none" stroke-width="1" fill="none" fill-rule="evenodd">
    <g>
      <rect id="bounding-box" x="0" y="0" width="24" height="24"></rect>
      <path
        d="M21.7429333,9.044125 L18.8202788,12 L21.7429333,14.955875 C22.058101,15.274625 22.0875166,15.7626667 21.8087684,16.0452917 C21.5293197,16.3272083 21.046763,16.2974583 20.7315954,15.9787083 L17.8089408,13.0228333 L14.8862862,15.9787083 C14.5711186,16.2974583 14.0885619,16.3272083 13.8091133,16.0452917 C13.530365,15.7626667 13.5597807,15.274625 13.8749483,14.955875 L16.7976029,12 L13.8749483,9.044125 C13.5597807,8.725375 13.530365,8.23733333 13.8091133,7.95470833 C14.0885619,7.67279167 14.5711186,7.70254167 14.8862862,8.02129167 L17.8089408,10.9771667 L20.7315954,8.02129167 C21.046763,7.70254167 21.5293197,7.67279167 21.8087684,7.95470833 C22.0875166,8.23733333 22.058101,8.725375 21.7429333,9.044125 Z M6.5,6 L10.5,3 C11.3284271,3 12,3.67157288 12,4.5 L12,19.5 C12,20.3284271 11.3284271,21 10.5,21 L6.5,18 L6.5,6 Z M2.5,7 L5,7 L5,17 L2.5,17 C1.67157288,17 1,16.3284271 1,15.5 L1,8.5 C1,7.67157288 1.67157288,7 2.5,7 Z"
        fill="#FFFFFE"></path>
    </g>
  </g>
</svg>
