<svg width="24" height="24" viewBox="0 0 24 24" fill="none" xmlns="http://www.w3.org/2000/svg">
  <path
    d="M21.05 3.00001C21.302 3.00001 21.5435 3.10003 21.7217 3.27833C21.9 3.45646 22 3.69802 22 3.95003V10.6H20.1V4.90003H4.90001V18.2H10.6V20.1H3.95001C3.69802 20.1 3.45647 20 3.27832 19.8217C3.10002 19.6436 3 19.402 3 19.15V3.95001C3 3.69802 3.10002 3.45647 3.27832 3.27832C3.45644 3.10002 3.69801 3 3.95001 3L21.05 3.00001ZM21.05 12.5C21.302 12.5 21.5435 12.6 21.7217 12.7783C21.9 12.9565 22 13.198 22 13.45V19.15C22 19.402 21.9 19.6436 21.7217 19.8217C21.5436 20 21.302 20.1 21.05 20.1H13.45C13.198 20.1 12.9564 20 12.7783 19.8217C12.6 19.6436 12.5 19.402 12.5 19.15V13.45C12.5 13.198 12.6 12.9565 12.7783 12.7783C12.9564 12.6 13.198 12.5 13.45 12.5H21.05ZM7.47178 6.12823L9.60928 8.26572L11.5501 6.32492V11.5499H6.32509L8.26589 9.60911L6.12839 7.47161L7.47178 6.12823Z"
    fill="#C9C9C9"/>
</svg>
